<svg width="325" height="75" xmlns="http://www.w3.org/2000/svg"><g fill="none" fill-rule="evenodd"><path d="M30.387 14.054c2.22 0 4.385.22 6.486.611a29.173 29.173 0 00-1.742-4.387 30.656 30.656 0 00-3.967-6.03A31.084 31.084 0 0027.775.95a19.466 19.466 0 01-1.637 6.38c-.093.216-.201.424-.302.636-.144.297-.284.596-.44.883a18.4 18.4 0 01-.61 1.042c-.138.225-.279.452-.423.675-.109.16-.216.321-.331.478a39.963 39.963 0 01-2.897 3.683c-.221.255-.443.5-.666.752a35.073 35.073 0 019.918-1.426z" fill="#00A9E2"/><path d="M20.47 15.48c-.216.246-.432.497-.647.731-.024.028-.048.053-.073.08-.38.428-.78.841-1.17 1.262-2.67 2.881-5.528 5.65-8.211 8.527-.332.353-.67.703-.995 1.062-.562.62-1.38 1.599-2.042 2.402-.719.873-1.393 1.782-1.966 2.753-2.287 3.885-3.757 7.876-4.342 11.968C6.86 34.477 17.81 27.866 30.387 27.866c12.738 0 23.822 6.773 29.598 16.77-.012-.197-.012-.4-.026-.598a28.788 28.788 0 00-.234-2.152c-.004-.02-.005-.042-.008-.063a30.168 30.168 0 00-.386-2.044 29.955 29.955 0 00-.538-2.029 28.997 28.997 0 00-1.352-3.602c-.014-.033-.03-.064-.045-.096a30.674 30.674 0 00-.798-1.61l-.104-.194a29.886 29.886 0 00-2.048-3.253l-.064-.086c-.36-.493-.734-.976-1.123-1.447a30.602 30.602 0 00-2.77-2.942l-.064-.06c-.466-.43-.946-.85-1.44-1.254-.016-.011-.03-.025-.046-.037a31.577 31.577 0 00-5.013-3.345c.265.784.616 2.004.673 3.21.007.157.007.312.002.466 0 .067-.006.277-.006.322 0 1.679-1.418 3.04-3.168 3.04-1.738 0-3.143-1.34-3.166-3 0-.009-.004-.016-.004-.025 0-.094-.003-.186-.003-.282v-.011c0-.316-.018-.626-.028-.938a29.687 29.687 0 00-.506-4.545c-.052-.273-.1-.547-.158-.817a30.177 30.177 0 00-.69-2.578 35.263 35.263 0 00-6.485-.611c-3.453 0-6.78.502-9.918 1.426z" fill="#00A4DE"/><path d="M59.984 44.637c-5.775-9.999-16.858-16.771-29.598-16.771-12.576 0-23.526 6.61-29.362 16.399a28 28 0 00-.291 3.774c.001.156.014.306.018.46.062 2.76.511 5.428 1.297 7.958a32.739 32.739 0 012.236-2.952c4.904-5.706 11.797-9.761 19.654-11.22.277-.914.6-1.808 1.02-2.653a17.731 17.731 0 012.296-3.488 17.84 17.84 0 011.961-1.908c.116 1.388.46 2.596.947 3.69.053.126.116.246.175.368.083.172.165.346.255.513.11.205.229.404.352.601.081.131.161.263.244.39.064.094.127.187.192.277.412.599.88 1.16 1.351 1.717 9.548.63 18.018 5.034 23.758 11.713.64.744 1.239 1.522 1.809 2.322a29.496 29.496 0 001.593-7.119c.087-.9.146-1.807.15-2.727v-.007c-.002-.45-.03-.893-.057-1.338z" fill="#0091CC"/><path d="M4.284 53.505a32.849 32.849 0 00-2.237 2.953 29.623 29.623 0 004.337 8.638c1.298-1.255 2.72-2.387 4.214-3.427-.036-.446-.092-.887-.092-1.343 0-.405.026-.803.054-1.202.262-3.599 1.674-6.891 3.895-9.54.009-.011.02-.019.03-.028l.034-.042a17.75 17.75 0 011.387-1.465 17.911 17.911 0 013.935-2.8c-.088.266-.18.6-.254.965-.05.258-.093.527-.106.798a3.49 3.49 0 00-.001.27l.004.186c0 1.062.982 1.906 2.123 1.738.817-.12 1.407-.826 1.526-1.611l.018-.118v-.163l.001-.007c0-.183.01-.361.015-.543.019-.587.076-1.165.152-1.735.054-.406.123-.81.206-1.208.01-.052.016-.106.027-.16.101-.468.248-.922.386-1.376-7.857 1.458-14.75 5.514-19.654 11.22zm52.206 0c-5.742-6.68-14.21-11.083-23.759-11.714.115.135.209.283.326.415.252.291.506.584.759.859.013.015.028.03.041.047.22.246.452.485.678.729.177.192.363.38.543.57 1.581 1.667 3.248 3.282 4.783 4.978.327.36.801.928 1.185 1.392.411.502.799 1.024 1.127 1.578 1.176 1.995 1.943 4.042 2.347 6.133a33.937 33.937 0 013.7 1.918 33.769 33.769 0 015.356 3.962 30.166 30.166 0 004.722-8.546 32.882 32.882 0 00-1.808-2.321z" fill="#006BB4"/><path d="M6.384 65.096a31.107 31.107 0 008.619 8.05 15.638 15.638 0 003.431 1.616l.017.005c-2.325-1.56-4.264-3.618-5.636-6.022-1.246-2.118-2.007-4.52-2.217-7.076-1.495 1.04-2.917 2.171-4.214 3.427zm41.846-4.758c-.023.014-.047.026-.07.039a34.18 34.18 0 00-3.64-1.885c.207 1.066.346 2.141.339 3.232-.001.13-.015.26-.021.392l-.01.004c-.03.877-.113 1.76-.288 2.652a19.264 19.264 0 01-1.173 3.811c-.028.064-.058.123-.088.185a24.91 24.91 0 01-.785 1.497c-.05.085-.102.17-.154.253a16.82 16.82 0 01-1.26 1.802c-.095.121-.206.228-.305.346-.229.274-.463.54-.708.8-.434.45-.89.88-1.37 1.283l.068-.023c.18-.058 1.198-.406 1.532-.535.005-.003.013-.004.02-.007.264-.105.531-.204.791-.317.18-.075.358-.154.537-.232l.093-.042a31.895 31.895 0 0011.877-9.275 34.077 34.077 0 00-5.385-3.98zm45.425-17.891l.004.705c.01 1.601-.501 2.818-1.564 3.716-1.074.911-2.605 1.379-4.553 1.39-1.548.01-2.749-.295-3.569-.906-.785-.586-1.168-1.386-1.175-2.448-.008-1.134.402-1.973 1.25-2.57.9-.63 2.227-.957 3.947-.967 1.995-.013 3.898.351 5.66 1.08zm4.924-17.15c-1.175-1.003-2.615-1.781-4.279-2.316-1.649-.53-3.52-.791-5.557-.779-3.705.024-6.788.888-9.163 2.57-2.393 1.694-3.929 3.967-4.562 6.755l-.139.611 8.59 1.267.154-.477c.405-1.242 1.046-2.191 1.906-2.82.856-.628 1.931-.95 3.196-.958 1.538-.009 2.707.396 3.574 1.237.867.846 1.294 1.997 1.303 3.525l.017 2.66a18.477 18.477 0 00-2.853-.716 23.568 23.568 0 00-4.17-.345c-3.923.025-7.067.958-9.346 2.777-2.314 1.846-3.478 4.354-3.46 7.454.02 2.894 1.063 5.212 3.104 6.891 2.011 1.66 4.775 2.49 8.213 2.468 2.216-.014 4.24-.396 6.02-1.136a10.963 10.963 0 003.33-2.128l.014 2.423 8.022-.049-.127-20.438c-.012-1.758-.351-3.373-1.01-4.802a10.67 10.67 0 00-2.777-3.674zm36.969 3.972v-7.01h-25.26v7.587h13.98l-14.086 17.457v7.136h25.738V46.85h-14.345l13.973-17.582zm188.669 0v-7.01h-25.349v7.587h14.069L298.85 47.303v7.136h25.738V46.85h-14.344l13.972-17.582zM158.405 46.88c-1.662 0-2.99-.495-4.061-1.513-.945-.898-1.625-2.133-2.023-3.676h12.052c-.399 1.544-1.069 2.78-1.998 3.678-1.051 1.017-2.35 1.51-3.97 1.51zm11.058-20.337c-1.293-1.384-2.903-2.467-4.787-3.218-1.872-.746-3.98-1.125-6.27-1.125-3.547 0-6.55.875-8.924 2.6-2.387 1.735-3.95 4.002-4.644 6.742l-.153.6 8.106 1.352.167-.433c.93-2.399 2.712-3.564 5.447-3.564 1.764 0 3.171.593 4.3 1.81 1.03 1.112 1.693 2.661 1.974 4.61h-21.433l-.062.5c-.043.34-.064.646-.064.922v.85c0 2.44.356 4.666 1.06 6.613.707 1.964 1.735 3.657 3.055 5.037 1.32 1.382 2.947 2.463 4.833 3.215 1.878.744 4.01 1.124 6.337 1.124 2.288 0 4.398-.38 6.272-1.126 1.881-.75 3.492-1.834 4.786-3.218 1.287-1.378 2.296-3.07 3-5.034.698-1.948 1.052-4.173 1.052-6.612 0-2.436-.354-4.662-1.052-6.612-.704-1.96-1.713-3.654-3-5.033zm22.351-2.215a11.356 11.356 0 00-2.92 3.044l.041-4.952h-7.901v31.86h8.888V39.635c0-2.87.765-5.097 2.274-6.619 1.507-1.517 3.602-2.286 6.228-2.286h1.718v-8.31h-1.904c-2.47 0-4.632.641-6.424 1.908zm16.595 30.112h8.888V22.26h-8.888zm31.683-7.337c-1.82 0-3.223-.739-4.295-2.257-1.1-1.557-1.658-3.73-1.658-6.46 0-2.726.557-4.9 1.658-6.46 1.073-1.518 2.477-2.256 4.295-2.256 1.814 0 3.21.737 4.261 2.253 1.083 1.56 1.633 3.736 1.633 6.463 0 2.73-.55 4.904-1.633 6.464-1.05 1.516-2.445 2.253-4.261 2.253zm6.633-20.83a11.45 11.45 0 00-3.028-2.523c-1.63-.927-3.516-1.398-5.605-1.398-1.997 0-3.812.385-5.392 1.144a11.239 11.239 0 00-4.025 3.252c-1.078 1.382-1.913 3.08-2.48 5.043-.56 1.943-.844 4.162-.844 6.595 0 2.435.284 4.655.844 6.598.568 1.963 1.402 3.66 2.48 5.042a11.245 11.245 0 004.026 3.252c1.58.76 3.375 1.144 5.332 1.144 3.19 0 5.86-1.08 7.953-3.209v15.891h8.436v-44.68h-7.738l.042 3.85zm-38.552-12.942c0-2.633 2.094-4.718 4.737-4.718 2.59 0 4.684 2.085 4.684 4.718 0 2.576-2.094 4.714-4.684 4.714a4.727 4.727 0 01-4.737-4.714zm74.191 29.116l.004.705c.01 1.601-.502 2.818-1.564 3.716-1.074.911-2.605 1.379-4.553 1.39-1.548.01-2.75-.295-3.57-.906-.784-.586-1.168-1.386-1.174-2.448-.008-1.134.401-1.973 1.249-2.57.9-.63 2.228-.957 3.948-.967 1.995-.013 3.898.351 5.66 1.08zm4.924-17.15c-1.175-1.003-2.616-1.781-4.28-2.316-1.648-.53-3.519-.791-5.556-.779-3.705.024-6.789.888-9.163 2.57-2.394 1.694-3.93 3.967-4.563 6.755l-.138.611 8.588 1.267.156-.477c.404-1.242 1.045-2.191 1.905-2.82.857-.628 1.932-.95 3.196-.958 1.538-.009 2.708.396 3.574 1.237.867.846 1.295 1.997 1.303 3.525l.017 2.66a18.477 18.477 0 00-2.852-.716 23.574 23.574 0 00-4.17-.345c-3.924.025-7.068.958-9.347 2.777-2.313 1.846-3.478 4.354-3.459 7.454.019 2.894 1.063 5.212 3.103 6.891 2.012 1.66 4.775 2.49 8.213 2.468 2.217-.014 4.241-.396 6.02-1.136a10.968 10.968 0 003.33-2.128l.015 2.423 8.02-.049-.126-20.438c-.012-1.758-.35-3.373-1.01-4.802a10.674 10.674 0 00-2.776-3.674z" fill="#006393"/></g></svg>